REM DIRINDEX 1\5,1\2\6,1\2\7,1\3\8,1\3\9,1\4\10,1\4\11,1\4\12
REM DIRNAME cjc026,folder01,folder02,folder03,folder04,folder05,folder06,folder07,folder08,folder09,folder10,folder11
TITLE ""
FILE "EJE_DB3000_5th_5C_25.mp3" MP3
  TRACK 01 AUDIO
    TITLE "0:"
    INDEX 01 00:00:00
  TRACK 02 AUDIO
    TITLE "10:cjc026_11106"
    INDEX 01 00:00:10
  TRACK 03 AUDIO
    TITLE "0:"
    INDEX 01 00:01:57
  TRACK 04 AUDIO
    TITLE "11:cjc026_11107"
    INDEX 01 00:02:20
  TRACK 05 AUDIO
    TITLE "0:"
    INDEX 01 00:04:18
  TRACK 06 AUDIO
    TITLE "12:cjc026_11108"
    INDEX 01 00:04:56
  TRACK 07 AUDIO
    TITLE "0:"
    INDEX 01 00:06:30
  TRACK 08 AUDIO
    TITLE "10:cjc026_11109"
    INDEX 01 00:06:65
  TRACK 09 AUDIO
    TITLE "0:"
    INDEX 01 00:08:48
  TRACK 10 AUDIO
    TITLE "11:cjc026_11110"
    INDEX 01 00:09:08
  TRACK 11 AUDIO
    TITLE "0:"
    INDEX 01 00:11:17
  TRACK 12 AUDIO
    TITLE "12:cjc026_11111"
    INDEX 01 00:11:52
  TRACK 13 AUDIO
    TITLE "0:"
    INDEX 01 00:13:32
  TRACK 14 AUDIO
    TITLE "10:cjc026_11112"
    INDEX 01 00:13:67
  TRACK 15 AUDIO
    TITLE "0:"
    INDEX 01 00:15:46
  TRACK 16 AUDIO
    TITLE "11:cjc026_11113"
    INDEX 01 00:16:06
  TRACK 17 AUDIO
    TITLE "0:"
    INDEX 01 00:18:16
  TRACK 18 AUDIO
    TITLE "12:cjc026_11114"
    INDEX 01 00:18:51
  TRACK 19 AUDIO
    TITLE "0:"
    INDEX 01 00:20:30
  TRACK 20 AUDIO
    TITLE "10:cjc026_11115"
    INDEX 01 00:20:66
  TRACK 21 AUDIO
    TITLE "0:"
    INDEX 01 00:22:45
  TRACK 22 AUDIO
    TITLE "11:cjc026_11116"
    INDEX 01 00:23:11
  TRACK 23 AUDIO
    TITLE "0:"
    INDEX 01 00:25:04
  TRACK 24 AUDIO
    TITLE "12:cjc026_11117"
    INDEX 01 00:25:42
  TRACK 25 AUDIO
    TITLE "0:"
    INDEX 01 00:27:21
  TRACK 26 AUDIO
    TITLE "10:cjc026_11118"
    INDEX 01 00:27:59
  TRACK 27 AUDIO
    TITLE "0:"
    INDEX 01 00:29:25
  TRACK 28 AUDIO
    TITLE "11:cjc026_11119"
    INDEX 01 00:29:63
  TRACK 29 AUDIO
    TITLE "0:"
    INDEX 01 00:31:64
  TRACK 30 AUDIO
    TITLE "12:cjc026_11120"
    INDEX 01 00:32:24
  TRACK 31 AUDIO
    TITLE "0:"
    INDEX 01 00:33:68
  TRACK 32 AUDIO
    TITLE "10:cjc026_11121"
    INDEX 01 00:34:25
  TRACK 33 AUDIO
    TITLE "0:"
    INDEX 01 00:35:50
  TRACK 34 AUDIO
    TITLE "11:cjc026_11122"
    INDEX 01 00:36:16
  TRACK 35 AUDIO
    TITLE "0:"
    INDEX 01 00:38:17
  TRACK 36 AUDIO
    TITLE "12:cjc026_11123"
    INDEX 01 00:38:52
  TRACK 37 AUDIO
    TITLE "0:"
    INDEX 01 00:40:02
  TRACK 38 AUDIO
    TITLE "10:cjc026_11124"
    INDEX 01 00:40:40
  TRACK 39 AUDIO
    TITLE "0:"
    INDEX 01 00:42:09
  TRACK 40 AUDIO
    TITLE "11:cjc026_11125"
    INDEX 01 00:42:46
  TRACK 41 AUDIO
    TITLE "0:"
    INDEX 01 00:44:66
  TRACK 42 AUDIO
    TITLE "12:cjc026_11126"
    INDEX 01 00:45:29
  TRACK 43 AUDIO
    TITLE "0:"
    INDEX 01 00:46:70
  TRACK 44 AUDIO
    TITLE "10:cjc026_11127"
    INDEX 01 00:47:33
  TRACK 45 AUDIO
    TITLE "0:"
    INDEX 01 00:49:64
  TRACK 46 AUDIO
    TITLE "11:cjc026_11128"
    INDEX 01 00:50:27
  TRACK 47 AUDIO
    TITLE "0:"
    INDEX 01 00:52:52
  TRACK 48 AUDIO
    TITLE "12:cjc026_11129"
    INDEX 01 00:53:12
  TRACK 49 AUDIO
    TITLE "0:"
    INDEX 01 00:55:41
  TRACK 50 AUDIO
    TITLE "10:cjc026_11130"
    INDEX 01 00:56:03
  TRACK 51 AUDIO
    TITLE "0:"
    INDEX 01 00:57:50
  TRACK 52 AUDIO
    TITLE "11:cjc026_11131"
    INDEX 01 00:58:10
  TRACK 53 AUDIO
    TITLE "0:"
    INDEX 01 01:00:73
  TRACK 54 AUDIO
    TITLE "12:cjc026_11132"
    INDEX 01 01:01:33
  TRACK 55 AUDIO
    TITLE "0:"
    INDEX 01 01:03:08
  TRACK 56 AUDIO
    TITLE "10:cjc026_11133"
    INDEX 01 01:03:43
  TRACK 57 AUDIO
    TITLE "0:"
    INDEX 01 01:05:20
  TRACK 58 AUDIO
    TITLE "11:cjc026_11134"
    INDEX 01 01:05:55
  TRACK 59 AUDIO
    TITLE "0:"
    INDEX 01 01:08:30
  TRACK 60 AUDIO
    TITLE "12:cjc026_11135"
    INDEX 01 01:08:62
  TRACK 61 AUDIO
    TITLE "0:"
    INDEX 01 01:10:39
  TRACK 62 AUDIO
    TITLE "10:cjc026_11136"
    INDEX 01 01:11:02
  TRACK 63 AUDIO
    TITLE "0:"
    INDEX 01 01:12:51
  TRACK 64 AUDIO
    TITLE "11:cjc026_11137"
    INDEX 01 01:13:11
  TRACK 65 AUDIO
    TITLE "0:"
    INDEX 01 01:15:23
  TRACK 66 AUDIO
    TITLE "12:cjc026_11138"
    INDEX 01 01:15:58
  TRACK 67 AUDIO
    TITLE "0:"
    INDEX 01 01:17:32
  TRACK 68 AUDIO
    TITLE "10:cjc026_11139"
    INDEX 01 01:17:70
  TRACK 69 AUDIO
    TITLE "0:"
    INDEX 01 01:19:25
  TRACK 70 AUDIO
    TITLE "11:cjc026_11140"
    INDEX 01 01:19:60
  TRACK 71 AUDIO
    TITLE "0:"
    INDEX 01 01:22:33
  TRACK 72 AUDIO
    TITLE "12:cjc026_11141"
    INDEX 01 01:22:70
  TRACK 73 AUDIO
    TITLE "0:"
    INDEX 01 01:24:26
  TRACK 74 AUDIO
    TITLE "10:cjc026_11142"
    INDEX 01 01:24:61
  TRACK 75 AUDIO
    TITLE "0:"
    INDEX 01 01:26:48
  TRACK 76 AUDIO
    TITLE "11:cjc026_11143"
    INDEX 01 01:27:09
  TRACK 77 AUDIO
    TITLE "0:"
    INDEX 01 01:29:31
  TRACK 78 AUDIO
    TITLE "12:cjc026_11144"
    INDEX 01 01:29:66
  TRACK 79 AUDIO
    TITLE "0:"
    INDEX 01 01:31:54
